<svg width="422" height="391" viewBox="0 0 422 391" fill="none" xmlns="http://www.w3.org/2000/svg">
<path fill-rule="evenodd" clip-rule="evenodd" d="M214.188 27.2134C238.708 17.7087 262.064 -4.50686 287.819 0.811082C312.092 5.82308 320.245 37.831 339.736 53.1369C360.714 69.61 392.252 72.673 407.337 94.6665C422.208 116.347 423.448 145.476 421.025 171.652C418.69 196.875 400.812 217.559 393.711 241.875C386.655 266.033 393.822 294.892 379.077 315.291C364.368 335.639 338.569 346.577 314.063 352.063C290.707 357.292 266.197 339.251 243.155 345.721C217.233 353 203.552 387.295 176.83 390.597C151.981 393.669 126.948 378.67 107.886 362.441C89.1144 346.458 85.3539 318.952 70.0135 299.653C54.2843 279.866 28.2617 269.344 16.2181 247.122C3.75887 224.132 1.20863 197.128 0.287655 170.998C-0.685218 143.395 0.351992 115.126 10.6627 89.5012C21.1733 63.38 32.9979 29.1324 60.2425 21.9961C93.9136 13.1766 125.003 49.2608 159.79 50.4398C179.665 51.1134 195.647 34.4008 214.188 27.2134Z" fill="#FFC776"/>
</svg>
