<svg width="185" height="180" viewBox="0 0 185 180" fill="none" xmlns="http://www.w3.org/2000/svg">
<mask id="mask0" mask-type="alpha" maskUnits="userSpaceOnUse" x="0" y="0" width="185" height="180">
<rect width="185" height="180" rx="5" fill="white"/>
</mask>
<g mask="url(#mask0)">
<path d="M160.3 108.488C167.974 139.063 150.057 165.113 133.083 184.38C116.589 203.102 108.702 215.745 82.7178 215.745C71.1814 215.745 50.67 196.321 40.4326 192.15C27.6212 186.931 1.07431 185.229 -8.49281 174.823C-26.2207 155.542 -65.1063 122.448 -65.1063 94.4544C-65.1063 71.5729 -56.9229 50.9019 -47.202 33.9936C-30.9157 5.66532 -16.6988 -24.2552 16.3191 -24.2552C44.8897 -24.2552 107.589 27.1195 125.084 49.2437C139.876 67.9484 149.466 65.33 160.3 108.488Z" fill="#779D6A"/>
<path fill-rule="evenodd" clip-rule="evenodd" d="M43.7171 51.5501C42.0741 49.6216 40.9622 47.2583 41.148 44.6101C41.6833 36.9798 52.3049 38.6584 54.371 42.5095C56.4371 46.3606 56.1916 56.1292 53.5213 56.8175C52.4564 57.0919 50.1879 56.4195 47.879 55.0279L49.3283 65.2806H40.7712L43.7171 51.5501Z" fill="#B28B67"/>
<path fill-rule="evenodd" clip-rule="evenodd" d="M58.1621 37.1707C57.9849 36.5479 57.5082 36.0146 56.8659 35.8563C56.7101 35.818 56.5493 35.8025 56.389 35.8089C56.3315 35.8112 56.3154 35.8278 56.2885 35.7876C56.2686 35.7578 56.2681 35.685 56.2599 35.6499C56.2344 35.541 56.2025 35.4334 56.1631 35.3287C56.0287 34.9713 55.8028 34.655 55.5306 34.3886C55.0213 33.8901 54.3332 33.5461 53.6183 33.4838C53.227 33.4498 52.8386 33.5134 52.4687 33.6407C52.2771 33.7065 52.0914 33.7886 51.9106 33.8793C51.8561 33.9066 51.6794 34.0403 51.6248 34.0317C51.5644 34.0221 51.4431 33.8721 51.394 33.8345C50.7874 33.369 50.0383 33.1861 49.2827 33.1915C48.4299 33.1979 47.6086 33.2406 46.8973 33.7605C46.7468 33.8705 46.6034 33.9911 46.4668 34.1179C46.3949 34.1847 46.3253 34.2541 46.2589 34.3262C46.2188 34.3698 46.1798 34.4143 46.1422 34.4601C46.0785 34.5377 46.0887 34.5632 45.9995 34.509C45.6571 34.3011 45.2605 34.2038 44.8609 34.2529C44.6237 34.2821 44.3928 34.3533 44.1736 34.447C44.099 34.479 43.9263 34.6063 43.8467 34.6075C43.7678 34.6087 43.5975 34.4907 43.5162 34.4607C43.0773 34.2987 42.6041 34.2587 42.1427 34.3336C41.6667 34.4109 41.1992 34.6008 40.7959 34.8632C40.6019 34.9894 40.4327 35.1293 40.2968 35.317C40.2381 35.398 40.185 35.4837 40.1185 35.5589C40.0796 35.6029 40.0025 35.648 39.9816 35.7037C39.9941 35.6703 39.461 35.4648 39.4107 35.4517C39.1428 35.3817 38.8699 35.3959 38.6075 35.4823C38.1141 35.6447 37.6897 36.0088 37.341 36.3822C37.1618 36.5739 37.0051 36.7859 36.872 37.0117C36.8083 37.1199 36.7499 37.2312 36.6966 37.3448C36.6707 37.3999 36.6536 37.4687 36.6195 37.5183C36.5756 37.5822 36.5461 37.5834 36.4666 37.6113C36.0628 37.7528 35.6947 37.9922 35.4143 38.3158C35.1308 38.6432 34.9468 39.0463 34.8696 39.4709C34.8651 39.4959 34.8624 39.5995 34.8478 39.613C34.8277 39.6317 34.7465 39.6234 34.7158 39.627C34.6094 39.6395 34.5038 39.6581 34.3995 39.6828C34.2074 39.7282 34.0204 39.7951 33.8435 39.8827C33.1539 40.2239 32.6608 40.8635 32.4195 41.5832C32.1662 42.3385 32.1707 43.2039 32.4734 43.9451C32.5223 44.0648 32.5805 44.181 32.6488 44.291C32.6907 44.3585 32.7043 44.3586 32.677 44.4294C32.6467 44.5082 32.5912 44.5847 32.5551 44.6617C32.4375 44.9129 32.3553 45.1793 32.3033 45.4513C32.2181 45.8977 32.1759 46.3667 32.2599 46.8164C32.299 47.0252 32.367 47.2293 32.4708 47.4153C32.5237 47.5102 32.5856 47.6001 32.6555 47.6833C32.6918 47.7265 32.7303 47.7677 32.7706 47.8073C32.7937 47.8298 32.8239 47.8496 32.8435 47.8748C32.8914 47.9363 32.9014 47.8858 32.8768 47.976C32.8423 48.1023 32.764 48.2268 32.7161 48.3497C32.6668 48.4762 32.6222 48.6046 32.5814 48.7341C32.4987 48.9965 32.4288 49.2637 32.3851 49.5354C32.3012 50.0571 32.316 50.613 32.5627 51.0918C32.6683 51.2966 32.8196 51.4763 33.0032 51.616C33.0931 51.6844 33.1904 51.7434 33.2925 51.7918C33.345 51.8167 33.412 51.8273 33.4359 51.8781C33.4616 51.9326 33.4234 52.041 33.4147 52.102C33.3388 52.6326 33.3008 53.1897 33.4585 53.7097C33.6038 54.1887 33.9236 54.6116 34.3389 54.8915C35.1446 55.4347 36.2306 55.404 37.0771 54.9692C37.2978 54.8559 37.5042 54.7152 37.6884 54.5492C38.1573 55.1804 39.1223 55.1605 39.8077 54.9806C40.6615 54.7565 41.3467 54.1628 41.7414 53.3827C42.2812 54.0398 43.414 53.8266 43.7883 53.1137C43.88 52.9393 43.9343 52.747 43.961 52.5524C43.9751 52.4501 43.9661 52.3469 43.9767 52.2454C43.9902 52.116 44.0766 51.9903 44.1263 51.8652C44.223 51.6217 44.2831 51.3701 44.2856 51.1075C44.287 50.9703 44.2696 50.8367 44.2566 50.7006C44.2448 50.5782 44.2788 50.4641 44.2981 50.3432C44.0791 50.3793 43.8123 50.3202 43.606 50.2567C43.4035 50.1944 43.2139 50.0303 43.071 49.8804C42.7392 49.5324 42.5365 49.0761 42.3978 48.622C42.0935 47.6254 42.2183 46.4297 43.2207 45.8827C43.6877 45.6279 45.0867 45.6287 45.6429 45.7547C46.2277 45.8871 46.8907 47.1775 46.9233 47.2988C46.9435 47.3739 46.9334 47.4668 47.0023 47.5168C47.1539 47.6268 47.4038 47.4359 47.5156 47.3417C47.7085 47.1791 47.8461 46.9628 47.9653 46.7436C48.2249 46.2659 48.4343 45.7537 48.5821 45.2307C48.6961 44.8276 48.769 44.4118 48.918 44.019C49.0663 43.628 49.3 43.2786 49.6634 43.0571C50.0587 42.8162 50.5119 42.6893 50.9459 42.5379C51.376 42.3879 51.7988 42.2045 52.1322 41.8861C52.2056 41.8161 52.2768 41.7417 52.3358 41.6593C52.3824 41.5942 52.4284 41.4697 52.4994 41.4284C52.6098 41.3642 52.7708 41.5311 52.8662 41.5917C53.337 41.8907 53.7298 42.3078 54.0466 42.7633C54.3616 43.2164 54.6201 43.6524 54.8302 44.1583C54.986 44.5335 55.0832 45.0141 55.3573 45.3216C55.4796 45.4589 56.389 45.542 56.6836 45.4221C56.9781 45.3022 57.3082 44.9909 57.4071 44.7959C57.5083 44.5962 57.5325 44.3769 57.4892 44.1583C57.4638 44.0297 57.4119 43.9096 57.3834 43.7833C57.3595 43.6772 57.3378 43.5769 57.2862 43.4797C57.1883 43.2955 57.0211 43.1631 56.8194 43.1078C57.0293 42.9143 57.2032 42.6829 57.3235 42.4241C57.4485 42.1553 57.5545 41.8284 57.5845 41.5334C57.609 41.2938 57.5712 41.0455 57.4401 40.8396C57.3025 40.6235 57.0587 40.4826 56.8477 40.3478C57.1699 40.0957 57.4457 39.7892 57.6724 39.4498C58.1133 38.7897 58.386 37.9577 58.1621 37.1707Z" fill="#191847"/>
<path fill-rule="evenodd" clip-rule="evenodd" d="M37.9457 94.7856L55.089 140.148L67.1051 173.582H73.9567L57.4393 94.7856L37.9457 94.7856Z" fill="#1F28CF"/>
<path fill-rule="evenodd" clip-rule="evenodd" d="M33.7087 94.7856C33.5223 110.35 33.6571 131.306 33.2229 132.276C32.9334 132.923 23.9302 140.292 6.21313 154.385L9.74471 160.39C30.7789 146.825 41.8337 139.14 42.9091 137.332C44.5222 134.622 52.6262 109.676 56.8425 94.7856H33.7087Z" fill="#2B44FF"/>
<path fill-rule="evenodd" clip-rule="evenodd" d="M6.27487e-05 158.426L5.96496 153.886L10.7778 159.622C11.148 163.946 12.5796 168.795 15.0727 174.17L13.9802 175.087L5.27127 164.708L2.83815 160.699L2.29189 161.157L6.27487e-05 158.426Z" fill="#191847"/>
<path fill-rule="evenodd" clip-rule="evenodd" d="M66.4692 180L66.8258 172.512H74.3132C77.8636 175.008 82.4987 177.029 88.2185 178.574V180H74.6698L70.0347 179.287V180H66.4692Z" fill="#191847"/>
<path fill-rule="evenodd" clip-rule="evenodd" d="M68.1669 90.2758L79.5401 98.6273C82.6247 99.4597 85.2018 100.495 87.2714 101.734C87.7603 102.18 88.3512 103.082 86.3237 102.926C84.2962 102.77 82.1566 102.697 81.8768 103.389C81.5971 104.08 82.824 104.907 82.2585 105.84C81.8815 106.462 80.1004 104.902 76.9152 101.161L65.6528 96.4907L68.1669 90.2758ZM24.4997 90.564L31.9505 90.5933C27.35 105.445 24.8664 113.325 24.4997 114.233C23.6746 116.278 25.4205 119.392 26.1671 121.065C23.7355 122.154 23.9946 118.124 20.9271 119.551C18.1272 120.854 15.9974 123.214 12.7626 121.218C12.3649 120.972 11.9291 120.048 12.9821 119.326C15.6054 117.528 19.3859 114.379 19.8967 113.343C20.5932 111.93 22.1276 104.337 24.4997 90.564Z" fill="#B28B67"/>
<path fill-rule="evenodd" clip-rule="evenodd" d="M45.6738 59.2992L48.7569 58.7704C60.196 68.6522 64.8945 87.6363 78.9161 97.693L75.5412 101.876C51.2163 98.8645 45.1872 75.7084 45.6738 59.2992Z" fill="#E87613"/>
<path fill-rule="evenodd" clip-rule="evenodd" d="M32.2338 98.0442C44.5959 98.0442 53.6891 98.0442 59.5136 98.0442C60.7602 98.0442 60.5253 96.2442 60.3451 95.336C58.2654 84.8534 50.1471 73.5537 50.1471 58.632L42.2783 57.3981C35.7699 67.8657 33.5191 80.7534 32.2338 98.0442Z" fill="#DDE3E9"/>
<path fill-rule="evenodd" clip-rule="evenodd" d="M32.4531 67.6872C31.3103 67.3587 30.4053 66.5925 29.7381 65.3886C26.862 60.1991 27.9007 57.3418 30.9743 56.4026C34.0479 55.4635 36.7889 57.398 41.6859 57.398C41.9523 57.398 42.1962 57.4147 42.4178 57.4481L44.8811 57.5887C51.9487 81.5415 53.8979 97.5225 50.7287 105.532H29.2574C27.9852 108.498 26.7679 110.994 25.6054 113.019H19.7548C19.2042 95.2157 23.437 80.1051 32.4531 67.6872Z" fill="#FF9B21"/>
<path fill-rule="evenodd" clip-rule="evenodd" d="M33.9328 93.23C34.6081 98.8799 35.7057 102.98 37.2255 105.532H29.2573C30.7413 102.071 32.2998 97.9708 33.9328 93.23H33.9328Z" fill="black" fill-opacity="0.1"/>
<path fill-rule="evenodd" clip-rule="evenodd" d="M89.5914 56.1927C93.654 56.1927 95.1316 51.3289 97.4397 48.6597C99.0911 46.75 101.909 47.3195 102.744 44.6459C104.842 37.9231 99.2268 33.1914 91.9019 33.1914C84.5771 33.1914 79.6383 37.3412 78.5719 43.5795C77.5055 49.8178 82.2666 56.1927 89.5914 56.1927Z" fill="#191847"/>
<path fill-rule="evenodd" clip-rule="evenodd" d="M90.0401 51.85C88.4022 49.9274 87.2936 47.5711 87.4788 44.9309C88.0126 37.3237 98.602 38.9972 100.662 42.8367C102.722 46.6761 102.477 56.4152 99.8148 57.1015C98.7531 57.3751 96.4914 56.7048 94.1895 55.3173L95.6344 65.539H87.1031L90.0401 51.85Z" fill="#B28B67"/>
<path fill-rule="evenodd" clip-rule="evenodd" d="M93.6367 46.9565C93.3267 46.7925 92.9715 46.6993 92.594 46.6993C91.3854 46.6993 90.4056 47.6542 90.4056 48.8321C90.4056 49.3129 90.5688 49.7565 90.8442 50.1132C90.3256 50.9679 89.9717 51.866 89.8557 52.7891C88.0584 52.7891 81.4988 45.9884 88.0334 39.59C94.5681 33.1915 104.011 42.3256 101.174 42.8583C99.5423 43.1646 96.2565 44.7222 93.6367 46.9565V46.9565Z" fill="#191847"/>
<path fill-rule="evenodd" clip-rule="evenodd" d="M84.2592 95.043L97.6358 138.774L104.116 175.965H109.196L102.349 95.043H84.2592Z" fill="#997659"/>
<path fill-rule="evenodd" clip-rule="evenodd" d="M79.4739 95.043C80.3824 119.054 79.3132 131.439 79.1098 133.62C78.9065 135.802 76.122 149.947 69.53 176.697L74.9439 174.838C85.3619 150.304 88.912 137.553 90.1069 134.331C91.3017 131.11 94.4752 118.014 99.6274 95.043H79.4739Z" fill="#B28B67"/>
<path fill-rule="evenodd" clip-rule="evenodd" d="M69.5706 174.811C69.173 175.872 68.9741 176.667 68.9741 177.194C68.9741 177.835 69.0809 178.77 69.2945 180C70.0381 180 76.7211 180 89.3436 180C89.8646 178.277 89.5638 177.347 88.4413 177.21C87.3188 177.073 86.3863 176.949 85.6438 176.838L76.3252 172.684C76.1459 172.604 75.9357 172.684 75.8558 172.864C75.8544 172.867 75.8531 172.87 75.8518 172.873L75.2528 174.326C74.2137 174.811 73.3693 175.053 72.7196 175.053C72.1917 175.053 71.4628 174.84 70.5327 174.414L70.5327 174.414C70.1757 174.25 69.7538 174.407 69.5901 174.764C69.5831 174.779 69.5766 174.795 69.5706 174.811Z" fill="#E4E4E4"/>
<path fill-rule="evenodd" clip-rule="evenodd" d="M102.985 174.811C102.587 175.872 102.388 176.667 102.388 177.194C102.388 177.835 102.495 178.77 102.709 180C103.452 180 110.135 180 122.758 180C123.279 178.277 122.978 177.347 121.855 177.21C120.733 177.073 119.8 176.949 119.058 176.838L109.739 172.684C109.56 172.604 109.35 172.684 109.27 172.864C109.268 172.867 109.267 172.87 109.266 172.873L108.667 174.326C107.628 174.811 106.783 175.053 106.134 175.053C105.606 175.053 104.877 174.84 103.947 174.414L103.947 174.414C103.59 174.25 103.168 174.407 103.004 174.764C102.997 174.779 102.991 174.795 102.985 174.811Z" fill="#E4E4E4"/>
<path fill-rule="evenodd" clip-rule="evenodd" d="M82.4819 95.043L88.1694 117.324H105.541L102.951 95.043H82.4819Z" fill="#69A1AC"/>
<path fill-rule="evenodd" clip-rule="evenodd" d="M79.2827 95.043C77.4113 100.652 77.0559 108.079 78.2163 117.324H95.9436L100.818 95.043H79.2827Z" fill="#89C5CC"/>
<path fill-rule="evenodd" clip-rule="evenodd" d="M115.556 89.3992L125.626 99.2226C128.556 100.472 130.957 101.852 132.828 103.363C133.249 103.87 133.707 104.843 131.727 104.408C129.747 103.972 127.645 103.604 127.272 104.247C126.9 104.891 127.997 105.878 127.309 106.721C126.851 107.283 125.309 105.496 122.683 101.36L112.212 95.1862L115.556 89.3992ZM70.861 90.7846L78.2893 90.8138C73.7027 105.62 71.2266 113.477 70.861 114.383C70.0385 116.421 71.779 119.526 72.5234 121.194C70.0991 122.279 70.3574 118.261 67.2992 119.684C64.5078 120.983 62.3844 123.336 59.1594 121.346C58.7629 121.101 58.3284 120.18 59.3782 119.46C61.9936 117.667 65.7626 114.528 66.2719 113.495C66.9663 112.086 68.496 104.516 70.861 90.7846Z" fill="#B28B67"/>
<path fill-rule="evenodd" clip-rule="evenodd" d="M91.9713 59.6143L95.0451 59.0871C100.337 72.307 109.576 84.3191 122.763 95.1231L112.799 107.229C99.6135 91.8456 91.4862 75.974 91.9713 59.6143Z" fill="#191847"/>
<path fill-rule="evenodd" clip-rule="evenodd" d="M78.5718 98.2423H105.943C99.6016 82.8239 96.431 69.7261 96.431 58.9491L88.1745 57.7189C81.6856 68.1549 79.8532 81.0037 78.5718 98.2423Z" fill="#DDE3E9"/>
<path fill-rule="evenodd" clip-rule="evenodd" d="M87.9997 57.7247C88.0007 57.7228 88.0018 57.7208 88.0029 57.7189H88.5419C89.1868 57.7411 90.169 57.7811 91.4887 57.8389L93.4837 63.5403C93.6948 70.4917 94.9272 84.5006 97.1809 105.567H79.2387C79.2857 107.022 79.3632 108.491 79.4713 109.973H66.1304C68.1259 87.4588 75.4135 70.0408 87.9931 57.7189L87.9997 57.7247V57.7247Z" fill="#2F3676"/>
<path fill-rule="evenodd" clip-rule="evenodd" d="M80.4239 86.9502C80.9345 96.0199 82.213 102.272 84.2593 105.707H79.2433C79.0237 99.1818 79.4172 92.9295 80.4239 86.9502V86.9502Z" fill="black" fill-opacity="0.1"/>
<path fill-rule="evenodd" clip-rule="evenodd" d="M83.2324 94.6875L92.0797 90.5745V94.6875H83.2324Z" fill="white" fill-opacity="0.2"/>
</g>
</svg>
