<svg width="185" height="180" viewBox="0 0 185 180" fill="none" xmlns="http://www.w3.org/2000/svg">
<mask id="mask0" mask-type="alpha" maskUnits="userSpaceOnUse" x="0" y="0" width="185" height="180">
<rect width="185" height="180" rx="5" fill="white"/>
</mask>
<g mask="url(#mask0)">
<path fill-rule="evenodd" clip-rule="evenodd" d="M44.6943 7.38151C30.8076 2.00925 17.5799 -10.5474 2.99364 -7.54156C-10.7535 -4.7087 -15.3711 13.3827 -26.4099 22.0339C-38.2904 31.3448 -56.1522 33.0761 -64.6957 45.5072C-73.1178 57.7615 -73.8202 74.2257 -72.4479 89.0208C-71.1257 103.277 -61.0002 114.968 -56.9784 128.712C-52.9826 142.367 -57.0413 158.678 -48.6904 170.208C-40.36 181.709 -25.7488 187.891 -11.8696 190.992C1.35784 193.948 15.239 183.751 28.289 187.408C42.9701 191.522 50.7182 210.906 65.8522 212.772C79.9254 214.508 94.1028 206.031 104.898 196.858C115.53 187.824 117.66 172.277 126.348 161.369C135.256 150.185 149.994 144.238 156.815 131.677C163.871 118.684 165.315 103.42 165.837 88.651C166.388 73.0495 165.801 57.071 159.961 42.5876C154.009 27.8235 147.312 8.46612 131.882 4.43258C112.812 -0.552383 95.2048 19.8431 75.5027 20.5095C64.2464 20.8902 55.1953 11.4439 44.6943 7.38151Z" fill="#FFC776"/>
<path fill-rule="evenodd" clip-rule="evenodd" d="M59.311 49.5069C57.4186 47.7686 56.007 45.5267 55.8667 42.8377C55.4625 35.0899 66.3631 35.4668 68.9192 39.0885C71.4752 42.7101 72.4356 52.5748 69.8324 53.5979C68.7943 54.0058 66.4273 53.6093 63.9309 52.4937L66.6573 62.6363L58.0425 63.6941L59.311 49.5069Z" fill="#915B3C"/>
<path fill-rule="evenodd" clip-rule="evenodd" d="M63.4604 35.2231C62.3021 35.1763 59.2293 35.4236 58.6655 35.4929C58.3052 35.5372 57.9249 35.6674 57.6709 35.3628C57.4629 35.1134 57.4707 34.6473 57.3799 34.3394C57.2745 33.9816 57.1442 33.6317 57.0131 33.2828C56.6399 32.29 56.146 31.3625 55.5099 30.5129C54.3165 28.9189 52.7117 27.7526 50.7979 27.1943C48.6846 26.5778 46.3888 26.6591 44.251 27.0993C41.9633 27.5703 39.9653 28.5899 37.8718 29.5756C35.8768 30.5149 33.7324 31.0515 31.5169 30.9844C29.2848 30.9169 27.4837 29.9328 25.4974 29.0327C23.464 28.1112 21.2095 27.622 18.9945 28.0701C16.9268 28.4884 15.1086 29.5866 13.5238 30.95C12.041 32.2256 10.8675 33.6854 10.3391 35.602C9.77069 37.6637 10.0359 39.8176 11.5798 41.3884C13.8177 43.6653 17.479 43.8757 20.4507 43.4452C22.1697 43.1963 23.8237 42.6738 25.3806 41.9017C27.4569 40.872 29.1733 39.3481 31.0746 38.0492C31.9668 37.4397 32.9019 36.9142 33.8984 36.4961C34.8654 36.0902 35.836 35.8393 36.8173 36.333C37.8553 36.8554 38.7922 37.3787 39.939 37.6446C41.0391 37.8998 42.1808 37.9779 43.3015 37.8315C45.4821 37.5466 47.5502 36.6024 49.6141 35.8866C51.2972 35.3029 53.1013 34.7057 54.9076 34.8463C55.6612 34.905 56.7732 35.0807 57.1327 35.8123C52.7617 37.1715 51.6847 42.9158 53.4434 46.8197C54.3925 48.9268 58.7957 50.9855 60.2441 49.6387C61.1617 48.7854 60.4326 47.9027 59.9593 47.319C59.0528 46.2012 58.6025 44.6776 59.9013 43.6624C61.0215 42.7868 62.5053 44.3573 62.5291 44.3524C62.8583 44.2854 65.5314 42.3081 67.2195 39.6945C69.1861 39.5705 69.3242 38.2468 68.7288 37.2512C68.1333 36.2556 65.0607 35.2879 63.4604 35.2231Z" fill="#191847"/>
<path fill-rule="evenodd" clip-rule="evenodd" d="M60.9919 93.2618L74.2392 138.911L80.4701 173.185H86.7239L80.4812 93.2618H60.9919Z" fill="#784931"/>
<path fill-rule="evenodd" clip-rule="evenodd" d="M55.0384 93.2618C55.9627 116.976 55.5982 129.911 55.3913 132.065C55.1844 134.22 54.0099 148.65 46.0067 173.908H52.5113C63.1103 149.677 66.8103 135.247 68.0259 132.065C69.2415 128.883 72.8318 115.949 78.0734 93.2618H55.0384Z" fill="#915B3C"/>
<path fill-rule="evenodd" clip-rule="evenodd" d="M60.7076 93.2618C64.1534 108.97 70.1132 134.044 78.5869 168.483H87.734C88.4096 133.134 85.5356 109.869 80.5585 93.2618H60.7076Z" fill="#69A1AC"/>
<path fill-rule="evenodd" clip-rule="evenodd" d="M54.9922 93.2618C55.8975 116.976 53.5514 140.339 46.2841 168.853H56.0434C66.6619 144.983 74.2725 121.735 79.4738 93.2618H54.9922Z" fill="#C5CFD6"/>
<path fill-rule="evenodd" clip-rule="evenodd" d="M45.0796 178.61L45.4385 172.823C47.5398 173.438 50.1718 173.197 53.3343 172.1C56.7349 174.509 61.0157 176.154 66.1768 177.034C66.5706 177.101 66.8353 177.475 66.7681 177.869C66.7638 177.894 66.758 177.92 66.751 177.945L66.2548 179.694H53.3343H45.7974L45.0796 178.61Z" fill="#191847"/>
<path fill-rule="evenodd" clip-rule="evenodd" d="M79.074 178.61L79.4329 172.823C81.5342 173.438 84.1661 173.197 87.3287 172.1C90.7293 174.509 95.0101 176.154 100.171 177.034C100.565 177.101 100.83 177.475 100.762 177.869C100.758 177.894 100.752 177.92 100.745 177.945L100.249 179.694H87.3287H79.7918L79.074 178.61Z" fill="#191847"/>
<path fill-rule="evenodd" clip-rule="evenodd" d="M90.8571 85.0519L103.689 91.391C106.916 91.6792 109.673 92.2597 111.958 93.1326C112.525 93.4915 113.274 94.2885 111.222 94.4899C109.169 94.6912 107.019 94.9954 106.861 95.7354C106.704 96.4755 108.075 97.0854 107.674 98.1171C107.407 98.8048 105.353 97.5605 101.513 94.3841L89.4403 91.7027L90.8571 85.0519ZM47.2892 93.031L54.7369 91.7479C52.7573 107.393 51.6643 115.702 51.4581 116.674C50.9941 118.862 53.2865 121.665 54.327 123.205C52.0897 124.72 51.6388 120.649 48.8261 122.615C46.2588 124.409 44.547 127.142 40.9643 125.718C40.5238 125.543 39.9257 124.697 40.8504 123.79C43.154 121.531 46.3757 117.721 46.7034 116.595C47.1503 115.061 47.3456 107.206 47.2892 93.031Z" fill="#915B3C"/>
<path fill-rule="evenodd" clip-rule="evenodd" d="M62.933 58.072L65.9195 57.0007C79.0864 64.8568 87.1234 82.9922 102.901 90.568L100.266 95.3411C75.438 96.617 65.3371 74.5486 62.933 58.072Z" fill="#1F28CF"/>
<path fill-rule="evenodd" clip-rule="evenodd" d="M56.3322 99.141C68.6805 96.9637 77.7636 95.3621 83.5816 94.3362C84.8268 94.1167 84.2751 92.3601 83.9351 91.4846C80.0115 81.3799 69.912 71.5227 67.2838 56.6176L59.2065 56.771C54.5489 68.3733 54.5706 81.6431 56.3322 99.141Z" fill="#DDE3E9"/>
<path fill-rule="evenodd" clip-rule="evenodd" d="M51.2044 68.779C50.005 68.6522 48.9661 68.0462 48.0876 66.9612C44.3007 62.284 44.835 59.247 47.7397 57.7675C50.6445 56.288 53.7231 57.7376 58.6147 56.8751C58.8808 56.8282 59.1274 56.8019 59.3546 56.7963L61.8399 56.5028C73.1185 79.1842 77.8803 94.804 76.1252 103.362L54.6778 107.144C53.9296 110.331 53.1532 113.039 52.3487 115.267L46.5046 116.297C42.8189 98.6104 44.3855 82.7711 51.2044 68.779Z" fill="#2B44FF"/>
<path fill-rule="evenodd" clip-rule="evenodd" d="M57.1815 94.0326C58.8512 99.5573 60.6697 103.46 62.6372 105.741L54.6779 107.144C55.5508 103.426 56.3853 99.0558 57.1815 94.0326L57.1815 94.0326Z" fill="black" fill-opacity="0.1"/>
</g>
</svg>
