<svg width="354" height="357" viewBox="0 0 354 357" fill="none" xmlns="http://www.w3.org/2000/svg">
<path d="M1.979 150.087C-9.00174 191.554 28.1933 197.956 52.479 224.087C61.2728 233.549 31.1566 241.289 41.479 263.587C47.6357 276.887 58.1581 277.241 64.979 289.587C77.4115 312.091 126.534 356.087 141.595 356.087C150.414 356.087 164.786 327.336 185.479 313.087C203.516 300.668 228.158 302.722 234.979 300.087C253.309 293.008 239.791 254.7 253.479 240.587C278.843 214.437 353.095 229.554 353.095 191.587C353.095 160.554 346.897 100.526 333.979 59.5873C304.479 30.5872 282.219 5.08728 234.979 5.08728C194.102 5.08728 -8.021 -16.9126 1.979 30.5872C1.979 30.5872 17.479 91.5541 1.979 150.087Z" fill="#E6C5B8"/>
</svg>
